<?xml version="1.0" encoding="UTF-8"?>
<svg version="1.1" xmlns="http://www.w3.org/2000/svg" width="30" height="30">
<path d="M0 0 C0.74958984 0.01353516 1.49917969 0.02707031 2.27148438 0.04101562 C4.11879767 0.07631461 5.96574066 0.13012083 7.8125 0.1875 C7.8125 1.5075 7.8125 2.8275 7.8125 4.1875 C3.1925 4.1875 -1.4275 4.1875 -6.1875 4.1875 C-5.8575 4.8475 -5.5275 5.5075 -5.1875 6.1875 C-2.1458521 6.50528411 0.87316398 6.56742121 3.9296875 6.6484375 C6.8125 7.1875 6.8125 7.1875 8.734375 9.02734375 C9.8125 11.1875 9.8125 11.1875 9.1875 14.375 C8.73375 15.303125 8.28 16.23125 7.8125 17.1875 C4.19382441 18.3937252 0.88743749 18.29566918 -2.875 18.25 C-3.57689453 18.24548828 -4.27878906 18.24097656 -5.00195312 18.23632812 C-6.73050538 18.22456927 -8.45901365 18.20663454 -10.1875 18.1875 C-10.1875 16.8675 -10.1875 15.5475 -10.1875 14.1875 C-5.2375 13.8575 -0.2875 13.5275 4.8125 13.1875 C4.8125 12.5275 4.8125 11.8675 4.8125 11.1875 C4.06484375 11.21070313 3.3171875 11.23390625 2.546875 11.2578125 C1.56203125 11.27585937 0.5771875 11.29390625 -0.4375 11.3125 C-1.41203125 11.33570313 -2.3865625 11.35890625 -3.390625 11.3828125 C-6.25167829 11.18301828 -7.83994917 10.81189724 -10.1875 9.1875 C-11.125 6.25 -11.125 6.25 -11.1875 3.1875 C-8.71148429 -1.03744743 -4.32062362 -0.14716535 0 0 Z " fill="#FFFFFF" transform="translate(13.1875,5.8125)"/>
<path d="M0 0 C2.31 0 4.62 0 7 0 C7 4.29 7 8.58 7 13 C6.01 13 5.02 13 4 13 C4 9.7 4 6.4 4 3 C2.68 3 1.36 3 0 3 C0 2.01 0 1.02 0 0 Z " fill="#FFFFFF" transform="translate(21,2)"/>
</svg>
